{"glyphs":{"0":{"ha":0,"x_min":0,"x_max":0,"o":""},"1":{"ha":290,"x_min":0,"x_max":0,"o":"m 243 135 b 239 158 261 136 293 154 b 168 161 215 158 192 161 b 300 774 192 368 236 575 b 310 803 303 782 308 793 b 263 819 313 821 276 828 b 226 782 250 807 239 796 b 67 596 172 721 119 660 b 63 561 56 586 50 572 b 99 571 79 547 90 560 b 215 725 136 618 169 668 b 119 163 172 538 136 354 b 26 165 86 163 56 164 b -1 144 14 165 0 163 b 28 128 0 128 13 126 b 243 135 94 129 175 129 z "},"2":{"ha":468,"x_min":0,"x_max":0,"o":"m 94 194 b 397 564 185 325 293 440 b 492 733 433 607 488 668 b 399 817 496 788 456 826 b 157 631 303 800 189 706 b 188 583 147 608 154 571 b 361 757 236 646 290 715 b 421 706 424 796 465 789 b 282 525 386 643 314 564 b 4 188 182 411 90 314 b 28 129 -11 164 3 125 b 419 129 164 154 282 164 b 432 164 447 122 453 156 b 94 194 339 201 215 207 z "},"3":{"ha":393,"x_min":0,"x_max":0,"o":"m 218 392 b 454 743 304 460 496 610 b 47 624 401 894 50 774 b 61 593 47 614 53 599 b 93 613 76 583 88 600 b 404 753 126 706 342 822 b 117 378 493 650 215 417 b 119 329 100 371 96 339 b 207 350 135 322 178 350 b 224 210 299 353 325 275 b 26 165 167 172 68 150 b 8 147 -1 174 -3 165 b 90 115 28 121 56 118 b 326 279 161 110 325 168 b 218 392 328 347 303 392 z "},"4":{"ha":390,"x_min":0,"x_max":0,"o":"m 61 363 b 236 706 122 490 168 583 b 276 794 247 726 274 771 b 240 817 281 818 263 831 b 215 782 229 810 221 797 b 0 361 165 653 17 421 b 19 318 -4 346 13 329 b 283 397 33 300 193 376 b 253 153 269 353 243 182 b 293 149 261 135 289 121 b 442 733 326 376 365 556 b 449 760 446 743 450 753 b 407 782 444 788 418 786 b 290 433 374 769 310 535 b 61 363 213 411 122 383 z "},"5":{"ha":397,"x_min":0,"x_max":0,"o":"m 125 740 b 158 743 139 740 149 742 b 382 781 232 756 308 768 b 413 824 411 789 456 824 b 126 782 317 810 222 793 b 78 742 99 779 83 768 b 1 403 56 636 35 532 b 15 369 -1 390 -3 374 b 50 386 26 368 40 378 b 201 493 106 431 122 463 b 294 435 258 511 286 481 b 151 163 314 328 254 208 b 38 185 110 144 67 143 b 13 169 22 207 1 206 b 125 107 25 124 75 107 b 339 475 274 107 419 328 b 49 461 271 589 135 518 b 125 740 76 561 99 650 z "},"6":{"ha":318,"x_min":0,"x_max":0,"o":"m 74 410 b 321 771 88 514 217 729 b 303 810 346 783 325 813 b 235 783 278 807 260 800 b -4 328 81 672 4 513 b 118 131 -7 250 29 147 b 218 161 151 125 188 135 b 238 426 282 219 342 365 b 74 410 189 453 117 432 z m 129 174 b 68 376 47 190 61 311 b 228 303 149 418 228 378 b 129 174 228 246 185 164 z "},"7":{"ha":333,"x_min":0,"x_max":0,"o":"m 378 800 b 325 803 361 817 349 808 b 4 735 206 772 126 765 b 11 704 -12 729 -8 704 b 35 707 18 703 26 706 b 292 760 135 728 190 743 b 135 479 246 676 181 564 b 51 464 104 476 64 468 b 47 417 19 453 26 424 b 111 424 61 415 90 422 b 3 172 75 347 43 269 b 11 133 -1 160 -3 144 b 35 160 24 126 22 133 b 175 442 65 225 133 354 b 294 468 213 449 271 463 b 289 494 303 469 319 496 b 193 483 258 493 228 488 b 328 707 236 556 285 638 b 368 756 338 724 353 740 b 378 800 390 778 394 785 z "},"8":{"ha":376,"x_min":0,"x_max":0,"o":"m 93 453 b 22 349 68 419 42 386 b 117 133 -24 263 -8 138 b 286 364 228 129 404 244 b 246 400 274 376 260 388 b 367 600 281 463 321 522 b 408 725 390 638 407 678 b 288 813 413 792 351 831 b 92 658 201 789 136 733 b 93 453 54 592 57 522 z m 214 422 b 188 457 196 432 182 436 b 163 485 190 474 179 486 b 136 494 150 485 142 489 b 124 633 104 526 106 593 b 290 778 157 707 213 754 b 365 697 356 796 378 747 b 214 422 346 599 246 522 z m 136 401 b 242 238 176 356 322 306 b 65 253 196 199 75 158 b 136 401 65 297 93 356 z "},"9":{"ha":349,"x_min":0,"x_max":0,"o":"m 51 224 b 33 221 43 240 39 249 b 111 133 25 174 67 136 b 354 686 294 122 333 576 b 369 782 361 719 365 751 b 351 813 371 796 369 811 b 322 789 335 814 329 801 b 131 439 283 701 218 492 b 75 481 97 419 81 447 b 272 743 58 574 164 747 b 286 788 297 743 301 772 b 142 769 247 822 178 796 b 13 447 60 710 -35 556 b 151 406 39 390 97 374 b 278 593 211 450 240 524 b 171 232 253 497 244 326 b 51 224 135 186 85 150 z "},"\u0000":{"ha":0,"x_min":0,"x_max":0,"o":""},"\r":{"ha":328,"x_min":0,"x_max":0,"o":""}," ":{"ha":328,"x_min":0,"x_max":0,"o":""},"E":{"ha":672,"x_min":0,"x_max":0,"o":"m 231 103 b 161 153 158 56 79 60 b 449 418 244 254 343 343 b 510 461 469 433 490 446 b 464 546 554 497 522 569 b 54 411 407 525 122 339 b 51 493 33 435 44 465 b 436 879 106 650 289 796 b 650 861 500 915 739 1021 b 607 793 636 838 621 815 b 608 742 597 776 590 756 b 653 749 624 731 642 736 b 764 1008 693 794 831 946 b 274 856 650 1114 381 935 b 4 511 149 764 44 646 b 89 346 -24 411 10 351 b 263 392 149 342 213 368 b 86 178 201 335 131 258 b 93 15 50 111 50 38 b 221 43 122 0 174 18 b 307 97 256 61 288 83 b 703 410 426 186 586 319 b 671 414 736 450 693 424 b 456 251 613 374 514 289 b 231 103 381 200 307 151 z "},"F":{"ha":665,"x_min":0,"x_max":0,"o":"m 50 871 b 296 935 31 893 214 924 b 186 686 258 853 224 772 b 50 871 160 763 113 822 z m 240 556 b 415 958 288 696 356 824 b 938 990 588 975 763 1006 b 813 1036 946 1042 849 1038 b 94 953 592 1026 315 997 b 14 911 63 946 38 929 b 13 813 -21 882 -26 836 b 132 546 75 774 154 671 b 40 533 108 540 67 540 b 72 483 -8 522 -19 475 b 121 489 89 485 106 486 b 124 488 122 488 122 488 b 39 67 82 356 47 215 b 99 57 35 19 89 7 b 221 511 121 213 172 365 b 615 528 351 533 478 528 b 624 553 639 528 658 547 b 240 556 500 575 374 560 z "},"G":{"ha":571,"x_min":0,"x_max":0,"o":"m 479 538 b 340 188 447 454 404 304 b 265 79 331 169 292 106 b 210 82 242 56 221 47 b 181 76 204 104 186 93 b 246 24 168 28 218 15 b 588 622 422 72 536 499 b 594 661 592 633 594 647 b 518 669 588 694 532 703 b 135 313 478 556 274 313 b 64 446 64 313 58 386 b 431 971 82 638 225 908 b 538 925 474 983 542 992 b 531 874 536 908 532 890 b 550 814 528 860 526 814 b 583 836 561 814 576 825 b 494 1035 624 901 610 1018 b 24 575 258 1050 89 806 b 133 260 -1 479 -37 260 b 479 538 261 260 400 442 z "},"H":{"ha":789,"x_min":0,"x_max":0,"o":"m 151 376 b 115 89 135 306 101 161 b 139 64 117 78 131 64 b 165 111 160 58 163 97 b 231 381 183 200 203 289 b 578 368 344 381 457 375 b 621 389 590 368 606 361 b 244 421 493 413 369 413 b 440 956 290 604 357 783 b 456 996 447 967 456 982 b 443 1031 457 1008 450 1024 b 363 992 419 1050 375 1017 b 164 425 272 811 215 621 b 35 419 118 424 75 422 b 39 374 -15 419 -17 364 b 151 376 44 375 51 376 z m 896 1018 b 843 946 875 1003 858 972 b 583 175 710 725 631 432 b 572 60 574 126 568 83 b 599 19 575 42 576 21 b 629 57 622 18 626 36 b 656 174 635 96 644 133 b 938 986 729 432 815 706 b 896 1018 950 1008 932 1042 z "},"I":{"ha":465,"x_min":0,"x_max":0,"o":"m 217 92 b 542 983 314 400 418 690 b 639 992 575 986 608 989 b 725 1018 669 994 700 990 b 654 1022 700 1022 676 1022 b 281 994 532 1022 399 1007 b 218 946 253 990 203 990 b 444 975 288 960 394 969 b 136 85 322 708 239 406 b 39 74 104 81 72 78 b 3 43 21 71 -1 67 b 31 26 7 25 18 25 b 119 42 56 33 86 40 b 179 28 142 43 140 19 b 217 49 196 32 199 46 b 372 58 258 53 329 56 b 372 90 414 63 406 86 b 217 92 324 94 272 89 z "},"J":{"ha":621,"x_min":0,"x_max":0,"o":"m 194 525 b 183 542 224 554 196 554 b 17 100 92 458 -51 236 b 279 85 64 3 200 33 b 635 968 546 253 638 660 b 742 968 672 968 708 968 b 722 1021 758 982 740 1015 b 76 858 550 1063 181 1032 b 114 806 61 836 85 796 b 549 964 244 903 394 949 b 175 114 536 697 467 231 b 33 207 103 86 33 93 b 194 525 33 310 115 444 z "},"K":{"ha":617,"x_min":0,"x_max":0,"o":"m 131 325 b 506 99 261 267 383 190 b 553 63 518 89 538 68 b 585 93 572 57 599 65 b 546 136 574 110 558 124 b 194 392 447 226 303 311 b 947 1022 458 546 713 765 b 929 1054 974 1053 972 1097 b 167 428 699 831 464 599 b 408 974 232 631 300 807 b 408 1018 417 982 417 1010 b 336 1006 389 1042 354 1029 b -3 61 238 879 18 335 b 56 46 -7 11 44 17 b 131 325 63 64 92 229 z "},"L":{"ha":510,"x_min":0,"x_max":0,"o":"m 136 114 b 338 631 192 261 203 496 b 640 1018 383 674 713 929 b 511 1004 608 1053 560 1038 b 235 643 390 921 306 792 b 78 510 201 571 150 536 b 82 482 54 499 36 482 b 188 519 121 485 150 511 b 79 103 150 386 114 254 b 44 92 68 100 57 94 b 56 35 -18 74 -21 21 b 592 22 232 67 381 57 b 621 22 600 21 613 18 b 621 54 633 26 636 47 b 492 88 582 68 543 78 b 136 114 378 108 258 115 z m 597 978 b 360 694 626 940 464 768 b 597 978 424 800 482 907 z "},"M":{"ha":821,"x_min":0,"x_max":0,"o":"m 408 307 b 528 904 422 453 471 646 b 536 954 531 921 538 939 b 482 988 533 983 514 1032 b 449 928 468 971 458 947 b 92 215 329 696 224 458 b 53 200 68 172 67 153 b -3 179 38 244 0 213 b 32 94 -8 142 10 107 b 101 122 53 85 79 90 b 390 679 211 290 303 497 b 328 211 368 525 333 368 b 404 185 328 158 382 131 b 792 861 499 438 629 663 b 701 43 704 619 649 153 b 753 57 722 14 756 24 b 919 950 728 440 826 782 b 917 1031 943 993 935 1017 b 860 1003 889 1049 875 1022 b 408 307 696 807 532 569 z "},"N":{"ha":925,"x_min":0,"x_max":0,"o":"m 561 950 b 97 100 522 718 261 301 b 53 114 79 78 57 69 b 3 74 36 165 -10 125 b 104 28 13 32 53 -8 b 188 128 133 47 161 86 b 547 800 329 347 464 578 b 663 104 557 572 601 332 b 743 39 665 92 681 19 b 760 92 758 46 758 76 b 1246 1003 806 450 985 826 b 1233 1033 1275 1022 1251 1042 b 729 147 954 856 803 481 b 642 936 668 392 633 685 b 613 1015 643 986 633 1010 b 561 950 588 1021 569 996 z "},"O":{"ha":638,"x_min":0,"x_max":0,"o":"m 403 854 b 308 840 369 874 339 858 b 10 371 179 761 61 568 b 190 28 -24 236 -3 -14 b 561 403 347 60 475 222 b 676 943 632 550 690 786 b 525 1018 668 1032 592 1060 b 403 854 465 979 438 915 z m 369 778 b 315 513 336 699 306 592 b 354 521 321 467 356 476 b 563 988 350 661 460 907 b 638 940 600 1017 631 994 b 524 419 654 801 582 563 b 194 68 453 247 346 97 b 61 211 117 51 60 121 b 369 778 61 407 265 735 z "},"P":{"ha":794,"x_min":0,"x_max":0,"o":"m 74 319 b 13 81 49 244 22 168 b 31 22 8 44 14 25 b 60 69 58 22 56 49 b 139 310 81 154 110 236 b 853 601 365 293 711 394 b 642 1022 975 781 843 975 b 411 1031 567 1040 486 1040 b 28 742 290 1014 4 917 b 118 667 36 692 79 656 b 111 724 149 683 146 710 b 167 896 42 751 88 835 b 418 993 228 943 364 994 b 336 933 392 981 346 951 b 99 388 240 765 169 564 b 40 396 74 389 57 392 b 25 340 6 404 -7 357 b 74 319 40 332 56 328 z m 488 992 b 819 854 607 1007 761 957 b 621 500 896 721 728 564 b 167 385 475 414 293 375 b 488 992 251 588 346 822 z "},"Q":{"ha":664,"x_min":0,"x_max":0,"o":"m 301 88 b 664 671 444 197 597 417 b 661 960 688 763 697 867 b 467 1000 622 1044 538 1042 b 315 822 400 958 365 890 b 281 793 306 810 293 793 b 47 575 189 793 97 679 b 82 86 -28 419 -21 213 b 36 69 65 83 46 78 b 69 25 11 46 40 15 b 553 31 222 69 450 43 b 572 54 579 25 600 33 b 301 88 511 79 385 89 z m 214 497 b 243 503 222 471 243 474 b 282 690 236 563 258 639 b 329 719 292 708 307 717 b 347 794 379 729 383 746 b 518 985 396 865 440 942 b 621 928 572 1003 604 972 b 603 632 654 838 632 728 b 276 131 549 461 440 232 b 76 328 139 42 72 211 b 243 690 81 456 132 611 b 214 497 222 647 199 560 z "},"R":{"ha":886,"x_min":0,"x_max":0,"o":"m 347 899 b 106 64 246 669 104 326 b 163 61 106 26 158 22 b 243 400 175 153 206 283 b 783 22 431 304 604 179 b 819 -4 794 14 806 3 b 842 15 831 -8 849 1 b 818 46 835 26 825 36 b 307 447 665 200 485 319 b 982 728 492 497 829 599 b 1078 892 1036 775 1082 835 b 810 1036 1068 999 906 1035 b 31 744 582 1040 181 943 b 0 650 10 715 -4 686 b 82 586 6 614 42 582 b 118 604 93 586 111 596 b 100 636 129 618 114 629 b 111 754 60 664 74 713 b 347 899 174 822 256 861 z m 278 476 b 483 942 332 619 403 814 b 901 976 579 969 774 1007 b 929 757 1039 942 1044 849 b 278 476 756 618 363 504 z "},"S":{"ha":638,"x_min":0,"x_max":0,"o":"m 422 389 b 115 113 335 396 108 224 b 181 42 117 81 138 53 b 378 97 251 22 319 57 b 561 396 474 167 565 279 b 442 531 561 464 517 519 b 51 500 321 546 182 519 b 411 903 121 651 268 794 b 599 951 446 929 596 1025 b 496 692 599 896 531 749 b 519 671 476 660 493 657 b 681 903 575 700 667 824 b 544 1031 701 997 624 1040 b 4 528 336 1001 51 743 b 69 460 -7 482 18 456 b 379 493 168 464 265 488 b 494 401 458 493 497 460 b 335 147 494 313 415 214 b 199 82 293 114 257 89 b 160 118 168 79 158 97 b 422 389 167 217 343 344 z "},"T":{"ha":397,"x_min":0,"x_max":0,"o":"m 404 974 b 411 974 408 975 411 975 b 353 901 388 954 371 928 b 158 71 253 736 133 269 b 214 81 161 32 214 31 b 511 985 214 328 396 856 b 1113 1003 699 990 883 1003 b 1115 1035 1157 1003 1161 1025 b 1069 1042 1103 1038 1088 1040 b 418 1032 857 1042 639 1050 b 31 968 289 1017 165 1004 b -8 924 0 960 -12 942 b 47 913 -3 906 14 904 b 404 974 163 939 272 964 z "},"U":{"ha":672,"x_min":0,"x_max":0,"o":"m 617 688 b 471 36 544 519 476 239 b 501 -19 469 -3 482 -18 b 546 28 524 -21 543 -14 b 847 992 568 439 764 878 b 781 1021 878 1015 829 1069 b 632 767 725 963 669 817 b 181 199 488 569 349 375 b 68 185 156 174 76 113 b 290 760 57 338 193 625 b 251 825 314 792 297 835 b 200 786 232 819 214 804 b 0 274 89 635 15 468 b 126 103 -6 204 22 33 b 617 688 321 232 481 526 z "},"V":{"ha":439,"x_min":0,"x_max":0,"o":"m 842 1001 b 825 1024 874 1022 863 1043 b 103 153 515 800 222 522 b 135 849 63 361 101 624 b 115 896 139 868 136 888 b 47 851 81 906 57 881 b 65 58 -17 615 -21 293 b 106 33 72 42 86 31 b 131 69 128 36 128 56 b 842 1001 217 453 524 760 z "},"W":{"ha":708,"x_min":0,"x_max":0,"o":"m 492 268 b 507 651 475 339 510 596 b 406 663 504 717 439 699 b 108 221 303 551 217 389 b 206 701 135 368 176 556 b 218 833 214 744 224 789 b 138 881 214 874 169 897 b 53 811 104 864 81 835 b 75 792 43 794 58 783 b 132 815 122 822 135 831 b -1 51 97 574 -1 322 b 22 21 -1 42 11 25 b 72 56 46 14 63 38 b 381 581 154 242 269 413 b 396 565 403 613 396 596 b 417 107 394 418 385 263 b 463 63 422 85 433 61 b 496 111 490 64 490 92 b 1135 1088 592 501 819 833 b 1114 1101 1165 1113 1129 1117 b 492 268 836 875 607 615 z "},"X":{"ha":683,"x_min":0,"x_max":0,"o":"m 890 897 b 843 892 863 904 863 904 b 446 571 703 800 564 675 b 468 1015 439 693 440 864 b 471 1046 469 1026 471 1038 b 417 1050 471 1076 438 1083 b 401 1006 410 1036 404 1021 b 379 511 372 864 365 660 b 4 58 235 369 89 217 b 19 15 -4 46 -3 28 b 49 60 31 28 39 44 b 385 451 132 189 263 354 b 642 17 404 333 458 -4 b 689 93 675 19 707 53 b 676 75 683 89 682 81 b 581 75 649 46 608 44 b 456 519 511 153 460 401 b 851 867 574 632 726 775 b 890 897 865 876 878 886 z "},"Y":{"ha":651,"x_min":0,"x_max":0,"o":"m 703 903 b 631 953 715 956 678 1019 b 239 456 564 836 394 592 b 86 443 131 368 96 374 b 218 965 68 579 125 808 b 221 1022 231 986 239 1006 b 160 1017 206 1036 178 1035 b 10 432 53 894 -29 600 b 200 361 38 319 110 290 b 600 843 363 492 468 683 b 358 156 561 665 478 306 b 231 107 339 133 233 14 b 293 303 228 169 254 240 b 274 315 325 350 297 347 b 213 188 249 282 225 236 b 271 22 201 146 181 17 b 383 92 314 25 347 57 b 703 903 558 261 656 665 z "},"Z":{"ha":703,"x_min":0,"x_max":0,"o":"m 324 506 b 65 144 239 407 140 282 b 13 92 53 122 39 101 b 25 26 -21 81 4 39 b 54 26 32 21 44 25 b 703 22 269 53 463 63 b 743 21 717 19 731 18 b 750 71 768 25 769 58 b 701 88 735 79 718 85 b 104 113 529 122 292 138 b 146 171 117 133 135 160 b 424 510 215 260 353 431 b 565 507 460 510 556 508 b 607 531 589 506 615 518 b 446 536 564 538 492 533 b 871 936 572 675 718 838 b 871 1025 906 960 899 1038 b 199 929 622 946 418 871 b 225 844 106 951 147 861 b 743 946 421 814 644 901 b 350 539 631 836 456 672 b 167 542 290 539 201 540 b 133 508 150 542 119 508 l 324 506 z "},"a":{"ha":372,"x_min":0,"x_max":0,"o":"m 204 386 b 240 165 197 350 139 157 b 294 201 261 165 282 185 b 414 403 338 256 376 342 b 383 419 432 433 406 451 b 261 218 343 357 313 275 b 243 233 246 199 239 204 b 300 439 250 296 268 379 b 215 446 322 481 235 483 b 76 288 196 418 118 325 b 56 340 43 258 25 264 b 240 489 86 417 138 460 b 257 519 256 494 282 492 b 193 542 247 531 219 542 b -1 424 94 546 31 492 b -28 308 -19 388 -28 346 b 79 236 -33 256 33 193 b 204 386 121 274 160 325 z "},"b":{"ha":331,"x_min":0,"x_max":0,"o":"m 78 449 b 279 919 147 650 168 731 b 289 938 281 924 286 932 b 282 971 300 954 300 967 b 163 854 239 982 192 908 b -46 285 76 682 -11 444 b -54 224 -50 264 -54 244 b -21 199 -56 199 -46 192 b 11 206 -10 201 1 206 b 163 249 64 207 114 224 b 356 404 235 292 310 350 b 329 425 371 422 351 450 b 143 286 292 385 226 315 b 254 539 193 332 328 460 b 78 449 203 579 122 499 z m 192 510 b 213 478 228 531 225 506 b 15 282 182 407 97 321 b 192 510 29 340 133 476 z "},"c":{"ha":275,"x_min":0,"x_max":0,"o":"m 136 475 b 181 499 172 507 182 508 b 153 429 176 472 156 449 b 182 414 149 415 171 399 b 206 539 207 450 242 497 b 114 544 178 568 144 563 b -47 272 18 490 -47 383 b 11 185 -47 239 -32 194 b 319 413 107 161 292 353 b 283 421 335 450 297 440 b 14 264 206 311 -8 147 b 136 475 25 319 92 436 z "},"d":{"ha":360,"x_min":0,"x_max":0,"o":"m 201 221 b 476 922 276 475 358 719 b 486 940 478 926 483 935 b 479 974 497 957 497 969 b 378 888 444 983 404 936 b 219 526 322 788 276 674 b 88 532 188 551 122 554 b -37 290 17 483 -35 375 b -26 232 -40 275 -36 250 b 46 204 -14 210 19 186 b 181 386 85 254 139 331 l 133 238 b 158 168 126 215 136 183 b 213 174 172 158 196 151 b 390 414 251 226 353 339 b 361 422 400 433 375 442 b 201 221 304 344 269 288 z m 24 242 b 211 490 33 313 106 539 b 24 242 211 488 197 454 z "},"e":{"ha":275,"x_min":0,"x_max":0,"o":"m 14 264 b 39 335 17 282 25 307 b 189 457 99 365 147 393 b 192 525 204 479 211 503 b 100 531 164 554 129 551 b -47 272 21 475 -47 382 b 11 185 -47 239 -32 194 b 313 414 107 161 285 354 b 278 424 328 451 292 443 b 14 264 196 311 -4 146 z m 122 461 b 167 485 158 493 168 494 b 60 374 163 463 115 411 b 122 461 83 415 99 440 z "},"f":{"ha":271,"x_min":0,"x_max":0,"o":"m 99 472 b 272 810 144 588 203 708 b 229 844 293 840 263 869 b 32 496 169 794 69 583 b 14 451 -18 511 -11 463 b -74 81 -21 338 -67 192 b -22 -75 -78 35 -86 -46 b 75 -28 19 -93 56 -53 b 147 415 158 74 243 293 b 288 407 183 393 260 394 b 281 435 308 415 310 440 b 99 472 204 417 144 444 z m 79 40 b 1 -28 58 8 24 -31 b 0 131 -31 -25 -3 104 b 83 429 18 228 53 344 b 79 40 225 371 119 104 z "},"g":{"ha":332,"x_min":0,"x_max":0,"o":"m -115 -190 b 99 -37 -40 -235 63 -96 b 221 240 154 51 192 139 b 357 403 263 282 326 356 b 331 419 376 433 351 453 b 235 300 307 382 271 338 b 265 431 246 343 256 386 b 210 481 278 488 218 506 b 122 350 189 439 153 389 b 53 343 94 315 35 235 b 249 508 72 436 172 528 b 265 539 265 503 290 511 b 201 561 256 550 228 561 b -19 328 50 568 -18 435 b 88 256 -25 275 42 213 b 189 393 119 285 156 335 l 142 257 b 115 221 138 243 125 231 b -132 -67 32 150 -96 54 b -115 -190 -142 -103 -154 -162 z m -37 -115 b -114 -137 -78 -161 -108 -165 b -11 60 -126 -78 -54 13 b 117 178 28 101 74 139 b -37 -115 92 96 25 -36 z "},"h":{"ha":368,"x_min":0,"x_max":0,"o":"m 154 821 b -56 238 42 589 25 501 b -31 168 -62 215 -53 183 b 24 174 -17 158 7 151 b 233 461 69 256 215 503 b 207 286 244 436 207 338 b 296 249 207 246 267 206 b 394 392 331 292 372 351 b 371 413 418 436 383 432 b 281 324 271 257 267 258 b 282 524 294 396 333 508 b 200 497 251 535 221 522 b 21 249 154 449 57 315 b 289 921 100 506 179 731 b 299 939 290 925 296 933 b 292 972 310 956 310 968 b 154 821 239 986 178 869 z "},"i":{"ha":144,"x_min":0,"x_max":0,"o":"m 168 400 b 147 413 189 435 165 440 b 15 229 119 372 69 276 b 92 475 46 336 72 406 b 29 504 111 521 49 536 b -40 225 -8 418 -53 275 b 40 213 -29 186 8 178 b 168 400 81 254 135 342 z m 51 585 b 122 585 46 547 107 553 b 51 585 133 619 54 629 z "},"j":{"ha":167,"x_min":0,"x_max":0,"o":"m 81 656 b 71 590 31 660 32 594 b 81 656 117 586 135 646 z m 38 246 b 93 479 60 311 79 389 b 65 547 100 519 88 543 b 17 493 39 551 28 536 b -281 -194 -35 278 -103 -32 b -271 -229 -292 -206 -294 -225 b -161 -153 -229 -235 -187 -185 b 17 176 -94 -71 -21 63 b 197 408 79 253 156 319 b 172 422 204 425 182 443 b 38 246 132 349 106 313 z "},"k":{"ha":321,"x_min":0,"x_max":0,"o":"m -26 161 b 13 197 -1 150 7 171 b 161 407 31 278 125 415 b 133 197 185 413 107 235 b 190 174 142 183 169 158 b 350 411 235 207 328 379 b 324 421 356 431 333 435 b 194 279 278 349 135 93 b 196 460 218 353 249 453 b 311 589 218 479 274 526 b 274 606 324 608 296 650 b 58 381 236 531 144 460 b 294 925 124 581 203 768 b 304 943 296 929 301 938 b 297 976 315 960 315 972 b 160 825 244 990 183 874 b -40 265 53 604 32 506 b -26 161 -53 232 -60 175 z "},"l":{"ha":165,"x_min":0,"x_max":0,"o":"m 156 825 b -62 238 43 593 18 501 b -37 168 -69 215 -60 183 b 22 168 -24 158 1 149 b 199 411 58 201 161 336 b 174 421 208 431 188 440 b -1 197 117 343 67 264 b 290 925 74 451 172 722 b 300 943 292 929 297 938 b 293 976 311 960 311 972 b 156 825 240 990 179 874 z "},"m":{"ha":568,"x_min":0,"x_max":0,"o":"m 244 549 b 39 310 157 465 39 322 b 129 506 39 353 106 460 b 138 529 133 514 136 521 b 64 551 142 560 86 572 b -42 290 18 482 -40 343 b 17 239 -46 269 -29 215 b 63 281 36 249 49 263 b 239 499 119 358 172 424 b 254 469 292 558 269 515 b 197 314 236 415 218 367 b 254 254 188 279 231 240 b 428 465 303 283 371 399 b 426 431 442 475 438 456 b 372 293 400 368 383 333 b 403 199 358 253 360 221 b 457 215 424 188 440 199 b 594 401 492 250 561 353 b 572 414 619 439 593 440 b 458 256 547 382 485 286 b 431 268 414 206 422 238 b 499 449 447 325 481 383 b 469 510 506 471 493 497 b 406 488 442 526 422 508 b 281 336 350 419 306 360 b 342 510 297 375 283 354 b 310 571 349 533 338 556 b 244 549 282 589 261 565 z "},"n":{"ha":367,"x_min":0,"x_max":0,"o":"m 399 401 b 375 421 417 432 389 442 b 240 249 315 335 236 218 b 310 456 247 293 304 413 b 232 497 313 488 271 522 b 46 310 165 453 111 369 l 65 368 l 119 489 b 100 526 125 507 118 515 b 49 515 79 539 65 538 b -25 340 14 464 -12 403 b 10 254 -31 308 -25 267 b 71 283 29 247 39 249 b 233 460 125 346 221 468 b 176 246 243 457 179 306 b 263 211 175 206 221 176 b 399 401 297 247 369 356 z "},"o":{"ha":283,"x_min":0,"x_max":0,"o":"m 210 382 b 244 547 231 431 251 490 b 213 603 242 575 231 594 b 65 497 144 633 83 565 b 56 482 64 490 63 483 b -17 236 7 476 -60 308 b 94 213 7 199 51 176 b 196 347 138 247 169 294 b 307 408 265 339 315 379 b 210 382 297 404 257 374 z m 179 390 b 106 479 131 406 108 435 b 213 543 101 543 203 618 b 179 390 218 489 203 440 z m 160 354 b 49 236 132 283 72 224 b 79 411 21 250 32 347 b 160 354 100 382 125 363 z "},"p":{"ha":335,"x_min":0,"x_max":0,"o":"m 267 414 b 183 506 319 521 264 556 b 83 418 146 482 117 450 b 172 583 115 492 151 546 b 150 617 181 600 169 611 b 97 603 132 622 114 622 b -167 -199 -37 414 -167 -36 b -117 -199 -167 -239 -122 -246 b 28 271 -89 -39 -39 121 b 253 381 83 197 193 260 b 339 393 285 385 329 392 b 336 419 378 399 367 426 z m 96 363 b 201 403 165 475 285 544 b 96 363 167 390 107 371 z m 64 281 b 183 367 85 335 133 347 b 64 281 156 321 110 282 z "},"q":{"ha":317,"x_min":0,"x_max":0,"o":"m 31 296 b 189 522 7 321 114 490 b 133 554 228 539 171 568 b -32 304 42 517 -47 374 b 53 260 -24 267 15 240 b 117 326 69 268 97 301 b -6 -172 63 163 26 -3 b 1 -224 -8 -193 -12 -204 b 24 -237 7 -231 15 -235 b 43 -208 39 -242 40 -225 b 54 -150 47 -187 51 -168 b 167 151 76 -29 97 47 b 350 404 222 236 294 318 b 321 414 368 432 338 438 b 133 153 249 315 208 257 b 293 557 165 292 229 446 b 278 619 315 596 304 607 b 254 610 274 621 265 625 b 31 296 164 465 61 271 z "},"r":{"ha":321,"x_min":0,"x_max":0,"o":"m 251 383 b 264 464 257 417 264 439 b 204 497 264 501 240 514 b 72 400 163 481 118 435 b 113 513 90 451 100 474 b 106 556 119 531 125 546 b 57 550 88 565 67 564 b -47 215 18 496 -58 253 b -7 199 -43 197 -19 193 b 3 219 0 201 0 207 b 157 428 40 333 96 389 b 185 382 197 453 196 433 b 239 318 171 325 203 306 b 351 403 258 324 289 343 b 329 421 376 426 350 442 b 251 383 307 397 240 331 z "},"s":{"ha":267,"x_min":0,"x_max":0,"o":"m 90 304 b -69 174 31 267 -31 224 b -50 25 -107 124 -129 38 b 50 50 -17 21 18 31 b 168 308 133 101 197 217 b 292 389 207 331 257 358 b 268 406 321 414 301 436 b 151 338 240 381 192 356 b 108 394 140 361 124 378 b 153 544 47 456 76 500 b 143 432 182 518 104 438 b 169 453 153 432 163 442 b 179 571 192 488 213 540 b 101 575 158 592 129 588 b 6 390 18 538 -40 453 b 90 304 28 363 65 349 z m 99 267 b -18 57 132 172 54 83 b -40 153 -94 32 -76 107 b 99 267 -3 201 46 232 z "},"t":{"ha":185,"x_min":0,"x_max":0,"o":"m 439 728 b 186 735 363 732 286 735 b 281 925 211 790 254 879 b 290 943 282 929 288 938 b 283 976 301 960 301 972 b 146 825 231 990 169 874 l 103 735 b -90 725 6 735 -40 731 b -135 693 -108 724 -128 715 b 90 701 -60 697 14 699 b -39 203 26 532 -36 343 b 22 139 -39 176 -12 115 b 214 403 94 232 147 307 b 188 417 226 432 199 431 l 14 182 b 169 704 39 358 104 540 b 463 701 267 704 363 706 b 546 707 490 700 518 701 b 439 728 511 721 475 725 z "},"u":{"ha":374,"x_min":0,"x_max":0,"o":"m 222 481 b 47 275 228 483 64 258 b 119 510 26 296 107 481 b 107 556 135 546 129 550 b 43 532 85 561 54 557 b -25 324 18 476 -15 389 b 8 235 -29 294 -26 249 b 136 308 46 222 69 225 l 213 404 b 236 165 206 368 135 157 b 290 201 257 165 278 185 b 410 403 333 256 372 342 b 379 419 428 433 401 451 b 257 218 339 357 308 275 b 239 233 242 199 235 204 b 304 468 246 296 272 408 b 222 481 326 510 242 518 z "},"v":{"ha":292,"x_min":0,"x_max":0,"o":"m 42 225 b 110 483 53 285 83 400 b 94 539 121 519 113 535 b 38 526 79 542 50 557 b -32 244 7 469 -32 314 b 10 181 -32 201 -10 188 b 46 178 19 178 35 171 b 201 410 83 200 157 353 b 301 393 219 368 276 378 b 299 419 331 411 322 428 b 251 464 257 406 218 406 b 340 569 274 503 314 544 b 343 589 346 575 351 581 b 275 560 329 610 292 575 b 42 225 186 469 124 336 z "},"w":{"ha":499,"x_min":0,"x_max":0,"o":"m 88 289 b 57 300 54 246 43 232 b 126 504 75 371 103 438 b 51 544 131 540 86 567 b -26 233 -10 450 -36 292 b 64 203 -17 186 31 167 b 183 358 106 249 143 313 b 171 206 175 310 163 243 b 290 199 183 153 256 146 b 401 418 324 250 349 306 b 526 394 429 354 508 367 b 510 417 533 408 522 421 b 472 531 449 393 382 435 b 435 558 503 568 461 592 b 293 278 392 493 343 372 b 242 247 282 256 242 169 b 269 418 246 304 260 360 b 257 458 272 433 272 449 b 194 433 224 474 210 453 b 88 289 157 386 124 333 z "},"x":{"ha":288,"x_min":0,"x_max":0,"o":"m 53 381 b 128 531 83 464 135 589 b 94 378 122 485 108 426 b -11 246 67 344 17 281 b 1 218 -42 210 -22 190 b 82 317 29 251 54 283 b 69 243 76 285 72 269 b 165 207 61 175 114 149 b 311 414 206 253 267 344 b 286 421 331 443 304 449 b 129 235 154 222 124 193 b 164 397 136 288 150 339 l 294 538 b 275 551 314 560 289 561 b 178 457 243 528 217 499 b 196 549 189 499 192 517 b 147 590 200 586 182 604 b -1 424 96 571 25 501 b 29 369 -17 390 6 382 b 53 381 39 365 50 371 z "},"y":{"ha":344,"x_min":0,"x_max":0,"o":"m 249 300 b 310 508 282 429 300 490 b 228 521 332 550 247 558 b 65 333 233 524 82 317 b 115 510 44 354 103 481 b 103 556 131 546 125 550 b 39 532 81 561 50 557 b -7 382 14 476 3 447 b 26 293 -11 353 -8 307 b 217 456 64 281 113 310 b 156 257 200 404 167 289 b 129 221 151 243 139 231 b -117 -75 46 150 -81 46 b -101 -190 -126 -111 -140 -162 b 113 -37 -26 -235 76 -96 b 235 251 168 51 206 150 b 364 403 276 293 333 356 b 344 419 383 433 365 453 b 249 300 321 382 285 338 z m -24 -115 b -100 -137 -64 -161 -94 -165 b -47 10 -110 -92 -72 -29 b 135 192 -1 78 72 136 b -24 -115 110 110 39 -36 z "},"z":{"ha":267,"x_min":0,"x_max":0,"o":"m 106 329 b 189 458 135 367 161 406 b 156 547 214 493 204 549 b -47 321 58 544 -19 413 b -17 288 -54 300 -36 288 b 13 307 3 288 6 288 b 147 511 49 401 94 481 b 153 463 171 526 171 497 b 33 301 121 406 69 356 b 51 264 26 289 36 264 b 78 274 60 264 69 271 b 117 221 94 278 121 272 b -104 -160 69 175 -186 -74 b -12 -156 -87 -178 -42 -175 b 186 253 121 -67 204 119 b 301 413 222 288 272 358 b 276 422 314 440 290 450 b 181 283 240 350 201 300 b 106 329 167 324 129 333 z m 118 185 b -25 -97 108 97 33 -36 b -56 -25 -115 -187 -89 -82 b 118 185 -12 49 61 135 z "},"˚":{"ha":165,"x_min":0,"x_max":0,"o":"m 144 990 b 17 979 144 1058 14 1051 b 144 990 21 892 144 903 z m 60 967 b 119 968 75 1033 142 1017 b 60 967 101 928 57 918 z "},"-":{"ha":363,"x_min":0,"x_max":0,"o":"m 292 351 b 288 382 326 350 308 381 b 90 392 222 386 157 390 b 44 371 74 392 46 396 b 88 346 43 343 71 346 b 292 351 156 346 224 349 z "},"+":{"ha":351,"x_min":0,"x_max":0,"o":"m 132 296 b 161 290 122 272 156 275 l 183 347 l 288 351 b 283 382 322 350 304 381 l 199 388 l 211 424 b 201 463 215 436 225 456 b 168 440 175 471 172 450 l 154 389 l 86 392 b 40 371 69 392 42 396 b 83 346 39 343 67 346 l 143 346 l 132 296 z "},"_":{"ha":497,"x_min":0,"x_max":0,"o":"m 401 164 b 411 199 451 163 440 197 b 114 207 318 204 210 206 b 49 185 90 207 51 211 b 111 158 47 156 88 158 b 401 164 208 158 304 161 z "},"@":{"ha":419,"x_min":0,"x_max":0,"o":"m 344 438 b 300 464 318 349 242 335 b 265 507 328 519 300 507 b 97 361 186 506 107 438 b 117 313 94 340 96 322 b 171 328 136 303 154 314 b 239 413 190 346 224 390 b 299 321 231 339 263 308 b 378 563 382 349 415 478 b 257 638 357 608 317 638 b 64 536 185 636 115 594 b 58 182 -26 433 -75 238 b 200 182 100 165 151 164 b 328 271 244 199 282 228 b 321 293 339 285 353 319 b 94 490 111 92 -54 269 b 246 600 131 547 185 592 b 349 538 293 607 332 582 b 344 438 357 510 354 471 z m 144 353 b 232 453 160 410 182 433 b 144 353 222 422 135 311 z "},".":{"ha":146,"x_min":0,"x_max":0,"o":"m 103 257 b 36 250 101 300 32 294 b 103 257 42 206 104 215 z "},":":{"ha":196,"x_min":0,"x_max":0,"o":"m 131 496 b 64 489 129 539 60 533 b 131 496 69 444 132 454 z m 101 281 b 35 274 100 324 31 318 b 101 281 40 229 103 239 z "},"ˇ":{"ha":189,"x_min":0,"x_max":0,"o":"m 51 1044 b 28 1036 44 1054 26 1054 b 43 933 29 1007 39 963 b 82 926 46 922 57 908 b 168 1026 110 961 142 993 b 151 1042 181 1039 168 1053 b 76 969 122 1022 99 994 b 51 1044 68 996 65 1022 z "},"ı":{"ha":144,"x_min":0,"x_max":0,"o":"m 168 400 b 147 413 189 435 165 440 b 15 229 119 372 69 276 b 92 475 46 336 72 406 b 29 504 111 521 49 536 b -40 225 -8 418 -53 275 b 40 213 -29 186 8 178 b 168 400 81 254 135 342 z "},"$":{"ha":333,"x_min":0,"x_max":0,"o":"m 46 360 b 89 243 15 331 39 265 b 71 136 82 211 69 169 b 88 133 71 122 82 115 b 115 235 97 164 107 203 b 294 471 235 208 365 382 b 181 506 274 497 232 507 b 222 694 193 567 210 639 b 265 599 296 711 269 640 b 306 608 264 586 301 604 b 304 707 329 629 325 683 b 229 726 289 724 257 729 l 242 785 b 208 788 256 851 224 842 b 190 718 204 771 200 750 b 4 564 111 696 35 646 b 83 449 -17 510 22 449 b 133 449 99 447 115 449 b 96 276 121 389 108 329 b 46 360 57 290 51 325 z m 169 450 b 258 404 204 446 258 458 b 122 267 258 346 197 251 z m 186 686 b 146 507 171 624 160 565 b 186 686 -19 493 63 644 z "},"#":{"ha":472,"x_min":0,"x_max":0,"o":"m 50 353 b 44 318 8 353 -10 322 b 117 314 68 315 93 315 b 97 239 108 285 101 258 b 129 219 83 201 107 174 b 168 314 144 251 157 283 b 256 315 197 314 226 315 b 235 239 246 285 239 258 b 267 219 219 201 244 174 b 307 318 282 251 294 285 b 357 318 324 318 340 318 b 343 367 447 317 450 374 l 325 367 l 339 408 b 383 408 354 408 368 408 b 371 457 475 407 476 464 l 357 457 b 371 496 361 469 365 483 b 317 503 404 575 346 600 l 300 456 b 217 451 274 456 246 454 l 233 496 b 179 503 267 575 208 600 l 160 449 b 78 443 128 446 97 446 b 71 408 35 443 17 413 b 146 404 96 406 121 406 b 131 358 140 389 135 375 b 50 353 100 357 71 356 z m 186 361 b 201 404 192 376 196 390 b 283 407 229 404 257 406 l 271 365 b 186 361 243 364 215 364 z "},",":{"ha":168,"x_min":0,"x_max":0,"o":"m 38 172 b 76 156 24 138 54 119 b 121 243 97 189 103 201 b 58 274 144 304 75 321 b 38 172 46 244 46 203 z "},"'":{"ha":190,"x_min":0,"x_max":0,"o":"m 64 783 b 99 768 50 749 81 729 b 146 869 121 815 128 828 b 99 879 165 908 115 926 b 64 783 86 850 72 814 z "},"*":{"ha":272,"x_min":0,"x_max":0,"o":"m 165 894 l 188 907 b 168 933 235 929 218 963 b 150 924 163 931 156 928 b 153 943 150 931 151 936 b 121 953 163 1000 126 1004 l 117 922 l 94 933 b 75 907 44 963 28 929 l 96 894 l 56 871 b 68 847 28 856 38 832 l 110 867 l 106 821 b 132 817 101 786 126 785 l 142 872 b 194 847 158 864 175 856 b 207 871 225 832 235 856 z "},"!":{"ha":279,"x_min":0,"x_max":0,"o":"m 64 314 b 104 307 54 275 92 268 b 299 996 167 535 221 725 b 235 1007 314 1046 243 1047 b 64 314 190 904 103 504 z m 21 196 b 103 194 10 138 94 143 b 21 196 110 238 33 243 z "},"?":{"ha":421,"x_min":0,"x_max":0,"o":"m 104 453 b 101 296 83 415 36 319 b 389 769 169 493 293 606 b 433 922 414 817 440 861 b 299 1022 425 982 382 1029 b 114 913 226 1017 161 974 b 111 611 43 818 11 681 b 171 643 147 586 196 625 b 186 903 82 711 115 825 b 383 878 250 974 415 1013 b 104 453 339 729 168 574 z m 25 196 b 107 194 14 138 99 143 b 25 196 114 238 38 243 z "},"/":{"ha":272,"x_min":0,"x_max":0,"o":"m -10 163 b -4 139 -14 153 -17 140 b 22 161 8 138 18 147 b 393 981 119 419 261 738 b 411 1021 397 989 411 1013 b 369 1033 411 1036 382 1050 b 351 1006 363 1025 357 1015 b -10 163 214 747 93 481 z "},"=":{"ha":358,"x_min":0,"x_max":0,"o":"m 296 396 b 292 426 331 394 313 425 b 94 436 226 431 161 435 b 49 415 78 436 50 440 b 92 390 47 388 75 390 b 296 396 160 390 228 393 z m 282 297 b 278 328 317 296 299 326 b 81 338 213 332 147 336 b 35 317 64 338 36 342 b 78 292 33 289 61 292 b 282 297 146 292 214 294 z "},"\"":{"ha":265,"x_min":0,"x_max":0,"o":"m 64 783 b 99 768 50 749 81 729 b 146 869 121 815 128 828 b 99 879 165 908 115 926 b 64 783 86 850 72 814 z m 144 783 b 179 768 131 749 161 729 b 226 869 201 815 208 828 b 179 879 246 908 196 926 b 144 783 167 850 153 814 z "},"C":{"ha":624,"x_min":0,"x_max":0,"o":"m 644 406 b 629 415 657 429 644 436 b 179 79 546 317 321 99 b 78 311 54 64 61 222 b 506 926 122 533 289 822 b 650 819 613 976 690 960 b 607 703 640 779 622 740 b 657 671 594 667 626 636 b 735 814 694 714 722 761 b 685 1013 751 883 738 971 b 382 943 600 1079 461 1004 b 3 303 175 779 46 567 b 175 18 -15 190 15 -14 b 644 406 326 49 558 283 z "},";":{"ha":196,"x_min":0,"x_max":0,"o":"m 131 496 b 64 489 129 539 60 533 b 131 496 69 444 132 454 z m 22 172 b 61 156 8 138 39 119 b 106 243 82 189 88 201 b 43 274 129 304 60 321 b 22 172 31 244 31 203 z "},"":{"ha":557,"x_min":0,"x_max":0,"o":"m 204 386 b 240 165 197 350 139 157 b 356 369 272 156 315 264 b 333 203 342 310 333 253 b 394 139 333 176 360 115 b 586 403 467 232 519 307 b 560 417 599 432 571 431 l 386 182 b 542 704 411 358 476 540 b 835 701 639 704 735 706 b 918 707 863 700 890 701 b 811 728 883 721 847 725 b 558 735 735 732 658 735 b 653 925 583 790 626 879 b 663 943 654 929 660 938 b 656 976 674 960 674 972 b 518 825 603 990 542 874 l 475 735 b 121 725 378 735 171 731 b 76 693 103 724 83 715 b 463 701 151 697 386 699 b 243 233 444 674 225 68 b 300 439 250 296 268 379 b 215 446 322 481 235 483 b 76 288 196 418 118 325 b 56 340 43 258 25 264 b 240 489 86 417 138 460 b 257 519 256 494 282 492 b 193 542 247 531 219 542 b -1 424 94 546 31 492 b -28 308 -19 388 -28 346 b 79 236 -33 256 33 193 b 204 386 121 274 160 325 z "},"":{"ha":329,"x_min":0,"x_max":0,"o":"m 582 728 b 329 735 506 732 429 735 b 424 925 354 790 397 879 b 433 943 425 929 431 938 b 426 976 444 960 444 972 b 289 825 374 990 313 874 l 246 735 b 53 725 149 735 103 731 b 8 693 35 724 15 715 b 229 701 82 697 154 699 b 15 229 190 622 42 210 b 92 475 46 336 72 406 b 29 504 111 521 49 536 b -40 225 -8 418 -53 275 b 38 194 -29 186 14 174 b 132 392 64 218 100 311 b 104 203 115 324 106 258 b 165 139 104 176 131 115 b 357 403 238 232 290 307 b 331 417 369 432 342 431 l 157 182 b 313 704 182 358 247 540 b 606 701 410 704 506 706 b 689 707 633 700 661 701 b 582 728 654 721 618 725 z m 51 585 b 122 585 46 547 107 553 b 51 585 133 619 54 629 z "},"":{"ha":558,"x_min":0,"x_max":0,"o":"m 222 481 b 47 275 228 483 64 258 b 119 510 26 296 107 481 b 107 556 135 546 129 550 b 43 532 85 561 54 557 b -25 324 18 476 -15 389 b 8 235 -29 294 -26 249 b 136 308 46 222 69 225 l 213 404 b 236 165 206 368 135 157 b 363 383 267 160 318 278 b 336 203 347 318 338 257 b 397 139 336 176 363 115 b 589 403 469 232 522 307 b 563 417 601 432 574 431 l 389 182 b 544 704 414 358 479 540 b 838 701 642 704 738 706 b 921 707 865 700 893 701 b 814 728 886 721 850 725 b 561 735 738 732 661 735 b 656 925 586 790 629 879 b 665 943 657 929 663 938 b 658 976 676 960 676 972 b 521 825 606 990 544 874 l 478 735 b 149 725 381 735 199 731 b 104 693 131 724 111 715 b 465 701 179 697 389 699 l 454 674 b 239 233 418 597 228 117 b 304 468 244 296 272 408 b 222 481 326 510 242 518 z "},"":{"ha":460,"x_min":0,"x_max":0,"o":"m 14 264 b 39 335 17 282 25 307 b 189 457 99 365 147 393 b 192 525 204 479 211 503 b 100 531 164 554 129 551 b -47 272 21 475 -47 382 b 11 185 -47 239 -32 194 b 274 431 88 165 203 303 b 235 203 251 349 236 269 b 296 139 235 176 261 115 b 488 403 368 232 421 307 b 461 417 500 432 472 431 l 288 182 b 443 704 313 358 378 540 b 736 701 540 704 636 706 b 819 707 764 700 792 701 b 713 728 785 721 749 725 b 460 735 636 732 560 735 b 554 925 485 790 528 879 b 564 943 556 929 561 938 b 557 976 575 960 575 972 b 419 825 504 990 443 874 l 376 735 b 183 725 279 735 233 731 b 139 693 165 724 146 715 b 364 701 214 697 288 699 b 14 264 249 375 -12 85 z m 122 461 b 167 485 158 493 168 494 b 60 374 163 463 115 411 b 122 461 83 415 99 440 z "},"":{"ha":468,"x_min":0,"x_max":0,"o":"m 226 443 b 213 603 243 483 268 576 b 65 497 144 633 83 565 b 56 482 64 490 63 483 b -17 236 7 476 -60 308 b 94 213 7 199 51 176 b 210 404 138 247 183 351 b 300 485 244 419 275 450 b 246 203 269 383 247 285 b 307 139 246 176 272 115 b 499 403 379 232 432 307 b 472 417 511 432 483 431 l 299 182 b 454 704 324 358 389 540 b 747 701 551 704 647 706 b 831 707 775 700 803 701 b 724 728 796 721 760 725 b 471 735 647 732 571 735 b 565 925 496 790 539 879 b 575 943 567 929 572 938 b 568 976 586 960 586 972 b 431 825 515 990 454 874 l 388 735 b 194 725 290 735 244 731 b 150 693 176 724 157 715 b 375 701 225 697 299 699 b 226 443 342 614 310 501 z m 164 393 b 49 236 136 322 72 224 b 78 424 21 250 31 360 b 164 393 99 394 121 388 z m 182 433 b 101 476 146 417 104 433 b 176 574 99 518 144 567 b 182 433 224 585 200 476 z "},"":{"ha":369,"x_min":0,"x_max":0,"o":"m 624 728 b 371 735 547 732 471 735 b 478 949 396 790 451 903 b 488 967 479 953 485 961 b 481 1000 499 983 499 996 b 331 825 428 1014 354 874 l 288 735 l 188 735 b 282 925 213 790 256 879 b 292 943 283 929 289 938 b 285 976 303 960 303 972 b 147 825 232 990 171 874 l 104 735 b -89 725 7 735 -39 731 b -133 693 -107 724 -126 715 b 92 701 -58 697 15 699 b -50 142 28 532 -47 282 b 11 78 -50 115 -24 54 b 197 476 72 156 139 357 b 146 203 168 378 147 282 b 207 139 146 176 172 115 b 399 403 279 232 332 307 b 372 417 411 432 383 431 l 199 182 b 354 704 224 358 289 540 b 647 701 490 701 514 701 b 731 707 675 701 703 701 b 624 728 696 721 660 725 z m 3 121 b 169 700 28 296 104 536 b 275 701 204 700 240 700 z "},"":{"ha":538,"x_min":0,"x_max":0,"o":"m 204 386 b 240 165 197 350 139 157 b 374 414 276 154 328 296 l 321 236 b 335 168 314 214 313 183 b 394 168 349 158 374 149 b 571 411 431 201 533 336 b 546 421 581 431 560 440 b 371 197 489 343 439 264 b 663 925 446 451 544 722 b 672 943 664 929 669 938 b 665 976 683 960 683 972 b 528 825 613 990 551 874 b 243 233 510 789 232 125 b 300 439 250 296 268 379 b 215 446 322 481 235 483 b 76 288 196 418 118 325 b 56 340 43 258 25 264 b 240 489 86 417 138 460 b 257 519 256 494 282 492 b 193 542 247 531 219 542 b -1 424 94 546 31 492 b -28 308 -19 388 -28 346 b 79 236 -33 256 33 193 b 204 386 121 274 160 325 z "},"":{"ha":322,"x_min":0,"x_max":0,"o":"m 314 825 b 29 278 286 785 42 217 b 90 475 60 385 71 406 b 28 504 110 521 47 536 b -26 274 -10 418 -39 324 b 51 243 -15 235 28 222 b 149 411 82 271 113 329 b 96 238 132 361 117 304 b 121 168 89 215 99 183 b 181 168 135 158 160 149 b 357 411 217 201 319 336 b 332 421 367 431 346 440 b 157 197 275 343 225 264 b 449 925 232 451 331 722 b 458 943 450 929 456 938 b 451 976 469 960 469 972 b 314 825 399 990 338 874 z m 50 585 b 121 585 44 547 106 553 b 50 585 132 619 53 629 z "},"":{"ha":554,"x_min":0,"x_max":0,"o":"m 221 481 b 46 275 226 483 63 258 b 118 510 25 296 106 481 b 106 556 133 546 128 550 b 42 532 83 561 53 557 b -26 324 17 476 -17 389 b 7 235 -31 294 -28 249 b 135 308 44 222 68 225 l 211 404 b 235 165 204 368 133 157 b 383 426 271 158 338 318 l 326 238 b 351 168 319 215 329 183 b 411 168 365 158 390 149 b 588 411 447 201 550 336 b 563 421 597 431 576 440 b 388 197 506 343 456 264 b 679 925 463 451 561 722 b 689 943 681 929 686 938 b 682 976 700 960 700 972 b 544 825 629 990 568 874 l 507 746 b 238 233 489 718 226 110 b 303 468 243 296 271 408 b 221 481 325 510 240 518 z "},"":{"ha":433,"x_min":0,"x_max":0,"o":"m 14 264 b 39 335 17 282 25 307 b 189 457 99 365 147 393 b 192 525 204 479 211 503 b 100 531 164 554 129 551 b -47 272 21 475 -47 382 b 11 185 -47 239 -32 194 b 254 397 81 167 183 279 b 206 238 239 351 224 299 b 231 168 199 215 208 183 b 290 168 244 158 269 149 b 467 411 326 201 429 336 b 442 421 476 431 456 440 b 267 197 385 343 335 264 b 558 925 342 451 440 722 b 568 943 560 929 565 938 b 561 976 579 960 579 972 b 424 825 508 990 447 874 b 322 596 379 732 347 663 b 14 264 160 238 -3 156 z m 122 461 b 167 485 158 493 168 494 b 60 374 163 463 115 411 b 122 461 83 415 99 440 z "},"":{"ha":449,"x_min":0,"x_max":0,"o":"m 226 443 b 213 603 243 483 268 576 b 65 497 144 633 83 565 b 56 482 64 490 63 483 b -17 236 7 476 -60 308 b 94 213 7 199 51 176 b 210 404 138 247 183 351 b 293 475 242 418 269 444 b 219 238 271 408 249 335 b 244 168 213 215 222 183 b 304 168 258 158 283 149 b 481 411 340 201 443 336 b 456 421 490 431 469 440 b 281 197 399 343 349 264 b 572 925 356 451 454 722 b 582 943 574 929 579 938 b 575 976 593 960 593 972 b 438 825 522 990 461 874 b 226 443 375 713 306 488 z m 164 393 b 49 236 136 322 72 224 b 78 424 21 250 31 360 b 164 393 99 394 121 388 z m 182 433 b 101 476 146 417 104 433 b 176 574 99 518 144 567 b 182 433 224 585 200 476 z "},"":{"ha":331,"x_min":0,"x_max":0,"o":"m 157 825 b -85 160 44 593 -4 424 b -60 90 -92 138 -82 106 b 0 90 -46 81 -21 71 b 150 396 22 111 92 265 l 103 238 b 128 168 96 215 106 183 b 188 168 142 158 167 149 b 364 411 224 201 326 336 b 339 421 374 431 353 440 b 164 197 282 343 232 264 b 472 968 239 451 354 765 b 482 986 474 972 479 981 b 475 1019 493 1003 493 1015 b 321 825 422 1033 344 874 b 285 750 307 799 296 774 b -24 119 215 628 40 182 b 292 925 51 374 174 722 b 301 943 293 929 299 938 b 294 976 313 960 313 972 b 157 825 242 990 181 874 z "},"ﬀ":{"ha":542,"x_min":0,"x_max":0,"o":"m 367 472 b 540 810 413 588 471 708 b 497 844 561 840 531 869 b 418 735 464 817 440 776 b 99 472 258 485 142 446 b 272 810 144 588 203 708 b 229 844 293 840 263 869 b 32 496 169 794 69 583 b 14 451 -18 511 -11 463 b -74 81 -21 338 -67 192 b -22 -75 -78 35 -86 -46 b 75 -28 19 -93 56 -53 b 136 440 158 74 244 324 b 318 533 189 435 265 478 b 185 22 250 369 200 185 b 236 -133 181 -24 172 -104 b 333 -86 278 -151 314 -111 b 415 415 417 15 511 293 b 556 407 451 393 528 394 b 549 435 576 415 578 440 b 367 472 472 417 413 444 z m 338 -18 b 260 -86 317 -50 282 -89 b 258 72 228 -83 256 46 b 351 429 276 169 321 344 b 338 -18 493 371 378 46 z m 79 40 b 1 -28 58 8 24 -31 b 0 131 -31 -25 -3 104 b 83 429 18 228 53 344 b 79 40 225 371 119 104 z "},"":{"ha":760,"x_min":0,"x_max":0,"o":"m 151 821 b -74 196 39 589 7 460 b -49 126 -81 174 -71 142 b 6 132 -35 117 -11 110 b 231 461 51 214 213 503 b 204 286 242 436 204 338 b 279 253 204 246 250 210 b 442 569 301 281 382 444 b 339 238 408 476 383 385 b 364 168 332 215 342 183 b 418 174 378 158 401 151 b 628 461 464 256 610 503 b 601 286 639 436 601 338 b 690 249 601 246 661 206 b 789 392 725 292 767 351 b 765 413 813 436 778 432 b 675 324 665 257 661 258 b 676 524 689 396 728 508 b 594 497 646 535 615 522 b 415 249 549 449 451 315 b 700 953 494 506 590 763 b 710 971 701 957 707 965 b 703 1004 721 988 721 1000 b 599 915 667 1013 628 964 b 278 324 518 799 261 246 b 279 524 292 396 331 508 b 197 497 249 535 218 522 b 3 207 151 449 39 274 b 286 921 82 464 176 731 b 296 939 288 925 293 933 b 289 972 307 956 307 968 b 151 821 236 986 175 869 z "},"":{"ha":1193,"x_min":0,"x_max":0,"o":"m 868 549 b 663 311 782 467 668 329 b 753 506 664 354 729 460 b 761 529 757 514 760 521 b 688 551 765 560 710 572 b 678 543 685 550 682 547 b 457 256 653 511 483 286 b 429 268 413 206 421 238 b 497 449 446 325 479 383 b 468 510 504 471 492 497 b 404 488 440 526 421 508 b 279 336 349 419 304 360 b 340 510 296 375 288 353 b 308 571 349 533 336 556 b 243 549 281 589 260 565 b 38 311 157 467 43 329 b 128 506 39 354 104 460 b 136 529 132 514 135 521 b 63 551 140 560 85 572 b -43 290 17 482 -42 343 b 15 239 -47 269 -31 215 b 61 281 35 249 47 263 b 238 499 118 358 171 424 b 253 469 290 558 268 515 b 196 314 235 415 217 367 b 253 254 186 279 229 240 b 426 465 301 283 369 399 b 425 431 440 475 436 456 b 371 293 399 368 382 333 b 401 199 357 253 358 221 b 458 213 422 188 442 196 b 614 407 482 236 557 332 b 582 290 596 360 582 315 b 640 239 578 269 594 215 b 686 281 660 249 672 263 b 863 499 743 358 796 424 b 878 469 915 558 893 515 b 821 314 860 415 842 367 b 878 254 811 279 854 240 b 1051 465 926 283 994 399 b 1050 431 1065 475 1061 456 b 996 293 1024 368 1007 333 b 1026 199 982 253 983 221 b 1081 215 1047 188 1064 199 b 1218 401 1115 250 1185 353 b 1196 414 1243 439 1217 440 b 1082 256 1171 382 1108 286 b 1054 268 1038 206 1046 238 b 1122 449 1071 325 1104 383 b 1093 510 1129 471 1117 497 b 1029 488 1065 526 1046 508 b 904 336 974 419 929 360 b 965 510 921 375 907 354 b 933 571 972 533 961 556 b 868 549 906 589 885 565 z "},"":{"ha":590,"x_min":0,"x_max":0,"o":"m 522 382 b 557 547 543 431 564 490 b 525 603 554 575 543 594 b 378 497 457 633 396 565 b 374 486 376 493 376 489 b 335 457 354 478 344 468 b 214 404 306 435 263 410 b 244 547 235 453 251 490 b 213 603 242 575 231 594 b 65 497 144 633 83 565 b 56 482 64 490 63 483 b -17 236 7 476 -60 308 b 94 213 7 199 51 176 b 201 371 138 247 175 318 b 307 411 239 375 276 390 b 296 236 282 354 269 278 b 407 213 319 199 364 176 b 508 347 450 247 482 294 b 619 408 578 339 628 379 b 522 382 610 404 569 374 z m 492 390 b 418 479 443 406 421 435 b 525 543 414 543 515 618 b 492 390 531 489 515 440 z m 183 406 b 106 479 128 400 108 435 b 213 543 101 543 203 618 b 183 406 218 489 207 456 z m 164 369 b 49 236 136 299 72 224 b 79 411 21 250 32 347 b 164 369 100 382 138 367 z m 472 354 b 361 236 444 283 385 224 b 392 411 333 250 344 347 b 472 354 413 382 438 363 z "},"":{"ha":725,"x_min":0,"x_max":0,"o":"m 656 414 b 572 506 708 521 653 556 b 472 418 535 482 506 450 b 533 517 504 492 513 479 b 511 550 542 533 531 544 b 458 536 493 556 475 556 b 267 414 433 515 340 426 b 183 506 319 521 264 556 b 83 418 146 482 117 450 b 172 583 115 492 151 546 b 150 617 181 600 169 611 b 97 603 132 622 114 622 b -167 -199 -37 414 -167 -36 b -117 -199 -167 -239 -122 -246 b 28 271 -89 -39 -39 121 b 253 381 83 197 193 260 b 411 461 278 383 358 415 b 238 -128 304 272 238 14 b 288 -128 238 -168 282 -175 b 417 271 315 32 351 160 b 642 381 472 197 582 260 l 728 393 b 725 419 767 399 756 426 z m 485 363 b 590 403 554 475 674 544 b 485 363 556 390 496 371 z m 96 363 b 201 403 165 475 285 544 b 96 363 167 390 107 371 z m 453 281 b 572 367 474 335 522 347 b 453 281 544 321 499 282 z m 64 281 b 183 367 85 335 133 347 b 64 281 156 321 110 282 z "},"":{"ha":888,"x_min":0,"x_max":0,"o":"m 306 264 b 331 335 308 282 317 307 b 481 457 390 365 439 393 b 483 525 496 479 503 503 b 392 531 456 554 421 551 b 258 360 335 490 283 431 b 251 464 232 375 228 424 b 388 613 274 503 361 588 b 390 632 393 618 399 624 b 322 603 376 653 339 618 b 42 225 206 488 119 338 b 110 483 53 285 83 400 b 94 539 121 519 113 535 b 38 526 79 542 50 557 b -32 244 7 469 -32 314 b 10 181 -32 201 -10 188 b 46 178 19 178 35 171 b 201 410 83 200 157 353 b 250 331 200 360 224 338 b 244 272 246 311 244 292 b 303 185 244 239 260 194 b 547 364 369 168 479 276 b 508 199 522 292 501 218 b 549 182 513 181 536 176 b 558 203 556 185 556 190 b 724 428 596 317 663 389 b 751 382 764 453 763 433 b 806 318 738 325 769 306 b 906 428 825 324 868 374 b 885 454 925 456 899 481 b 818 383 869 426 807 331 b 831 464 824 417 831 439 b 771 497 831 501 807 514 b 639 400 729 481 685 435 b 669 476 647 425 658 453 b 660 513 675 492 676 504 b 606 500 643 521 617 522 b 306 264 515 357 285 128 z m 414 461 b 458 485 450 493 460 494 b 351 374 454 463 407 411 b 414 461 375 415 390 440 z "},"":{"ha":947,"x_min":0,"x_max":0,"o":"m 935 825 b 639 281 906 771 650 203 b 711 475 669 388 692 406 b 653 518 726 511 676 522 b 542 468 626 513 593 494 b 442 531 521 500 488 524 b 51 500 321 546 182 519 b 411 903 121 651 268 794 b 599 951 446 929 596 1025 b 496 692 599 896 531 749 b 519 671 476 660 493 657 b 681 903 575 700 667 824 b 544 1031 701 997 624 1040 b 4 528 336 1001 51 743 b 69 460 -7 482 18 456 b 379 493 168 464 265 488 b 489 439 439 493 475 474 b 115 113 321 343 110 186 b 181 42 117 81 138 53 b 378 97 251 22 319 57 b 561 396 474 167 565 279 b 551 447 561 414 557 432 b 644 494 586 467 617 483 b 583 276 608 411 571 324 b 661 246 594 238 638 225 b 769 411 692 274 733 329 b 717 238 753 361 738 304 b 742 168 710 215 719 183 b 801 168 756 158 781 149 b 978 411 838 201 940 336 b 953 421 988 431 967 440 b 778 197 896 343 846 264 b 1069 925 853 451 951 722 b 1079 943 1071 929 1076 938 b 1072 976 1090 960 1090 972 b 935 825 1019 990 958 874 z m 494 401 b 335 147 494 313 415 214 b 199 82 293 114 257 89 b 160 118 168 79 158 97 b 494 414 164 183 340 319 z m 671 585 b 742 585 665 547 726 553 b 671 585 753 619 674 629 z "},"A":{"ha":929,"x_min":0,"x_max":0,"o":"m 228 319 b 21 121 161 253 94 181 b 60 76 -8 92 21 50 b 263 267 132 126 194 194 b 392 318 328 331 297 321 b 699 301 494 315 596 307 b 703 336 758 294 749 332 b 419 364 607 347 514 356 b 361 367 404 365 389 365 b 854 867 531 539 693 703 b 817 -1 794 611 707 268 b 861 -18 824 -18 840 -29 b 872 28 882 -8 879 10 b 1000 963 818 335 901 667 b 1010 1006 1006 976 1010 992 b 957 1033 1008 1036 982 1050 b 921 996 943 1025 932 1008 b 875 936 906 976 892 956 b 811 875 856 914 832 896 b 315 397 646 717 481 557 b 249 372 294 379 276 371 b 83 374 194 375 139 374 b 24 343 65 374 21 372 b 54 319 24 322 39 319 b 171 319 94 319 133 319 b 228 319 188 319 213 319 z "},"B":{"ha":765,"x_min":0,"x_max":0,"o":"m 431 401 b 893 606 579 454 749 504 b 1011 739 940 643 985 685 b 983 925 1040 806 1033 874 b 585 1033 888 1018 744 1044 b 133 850 417 1019 268 956 b -3 611 61 793 -14 713 b 101 521 7 560 51 522 b 146 542 119 521 143 519 b 128 564 147 557 139 561 b 75 583 110 568 93 572 b 114 756 8 622 74 713 b 389 929 183 831 286 908 b 374 906 382 918 379 913 b 129 210 231 710 169 458 b 124 67 119 164 121 124 b 28 43 99 58 67 50 b 38 13 3 39 1 8 b 418 90 167 29 294 54 b 653 222 497 114 599 149 b 640 325 678 256 672 296 b 431 401 588 368 503 390 z m 253 392 b 472 889 313 569 365 740 b 489 963 488 911 497 932 b 886 933 614 990 768 1000 b 925 717 971 888 985 801 b 253 392 803 551 456 463 z m 240 338 b 551 331 342 363 447 369 b 511 182 674 285 582 215 b 174 79 404 132 279 94 z "},"D":{"ha":961,"x_min":0,"x_max":0,"o":"m 169 778 b 426 963 225 854 343 942 b 271 640 364 868 304 747 b 132 160 215 482 167 322 b 90 121 126 133 118 121 b -14 117 57 121 19 119 b -31 71 -47 113 -56 83 b 108 54 13 53 51 54 b 101 11 110 39 104 29 b 125 -28 100 -6 104 -21 b 161 -1 143 -32 156 -19 b 183 71 169 17 179 49 b 733 290 368 110 572 167 b 965 763 869 397 1015 567 b 710 1015 933 896 839 976 b 247 929 542 1064 389 1025 b 58 622 165 869 25 740 b 169 543 72 572 119 540 b 171 617 201 544 246 601 b 169 778 86 639 129 724 z m 208 150 b 557 981 297 444 394 724 b 906 621 776 1022 961 831 b 208 150 835 339 474 207 z "}}}
